<?xml version="1.0" standalone="no"?><!DOCTYPE svg PUBLIC "-//W3C//DTD SVG 1.1//EN" "http://www.w3.org/Graphics/SVG/1.1/DTD/svg11.dtd"><svg t="1724476785113" class="icon" viewBox="0 0 1024 1024" version="1.1" xmlns="http://www.w3.org/2000/svg" p-id="4399" xmlns:xlink="http://www.w3.org/1999/xlink" width="200" height="200"><path d="M899.8144 797.713067h-81.363627V443.588267a5.797547 5.797547 0 0 0-5.799253-5.799254h-14.2336V407.125333c12.950187-1.594027 44.869973-9.033387 69.527893-43.84256a5.799253 5.799253 0 0 0-4.097706-9.11872c-0.8192-0.088747-80.01536-9.36448-111.5648-54.244693 0.054613-0.324267 0.100693-0.65536 0.100693-0.994987v-50.164053c12.540587-3.843413 29.858133-12.63616 44.130987-32.785067a5.807787 5.807787 0 0 0-4.10112-9.120426c-0.64512-0.07168-62.690987-7.284053-87.739734-42.294614 0.01536-0.182613 0.0512-0.35328 0.0512-0.534186V138.564267a5.799253 5.799253 0 0 0-11.60192 0v19.65568H332.439893V138.564267a5.802667 5.802667 0 0 0-11.60192 0v23.719253c-23.89504 36.887893-88.59136 44.496213-89.25184 44.566187a5.802667 5.802667 0 0 0-4.099413 9.117013c15.005013 21.183147 33.380693 29.81888 46.025387 33.343147v47.921493c-30.219947 47.189333-112.52224 56.833707-113.358507 56.92416a5.799253 5.799253 0 0 0-4.097707 9.11872c24.65792 34.812587 56.58112 42.251947 69.533014 43.84256v30.66368h-14.235307a5.802667 5.802667 0 0 0-5.799253 5.802667V797.713067H124.187307a5.80096 5.80096 0 0 0-5.802667 5.799253v81.92a5.799253 5.799253 0 0 0 5.802667 5.80096h775.625386a5.802667 5.802667 0 0 0 5.80096-5.80096v-81.92a5.799253 5.799253 0 0 0-5.799253-5.799253z m-455.21408 0v-129.266347c0-37.162667 30.237013-67.39968 67.401387-67.39968 37.16096 0 67.397973 30.237013 67.397973 67.39968v129.266347h-134.79936z m146.402987-26.743467h215.845546v26.743467H591.003307v-26.743467zM242.9696 216.81664c20.26496-3.76832 65.46432-15.445333 86.83008-46.99136h364.397227c21.369173 31.546027 66.56512 43.224747 86.83008 46.99136-20.404907 22.770347-44.270933 23.313067-45.503147 23.325013H288.482987c-1.10592-0.008533-25.050453-0.488107-45.513387-23.325013z m492.5696 34.92864h5.241173v41.376427H285.115733v-41.376427H735.5392z m-564.082347 112.45568c23.903573-4.174507 83.775147-18.430293 111.039147-59.480747h459.011413c27.26912 41.05728 87.150933 55.31136 111.051094 59.480747-26.519893 31.16032-58.51136 31.744-59.962027 31.752533H231.38816c-0.351573 0.003413-33.15712-0.38912-59.931307-31.752533z m65.73056 43.357867h549.623467v30.22848H237.187413v-30.22848z m-5.799253 41.8304H806.84544v309.976746h-215.842133v-90.919253c0-43.56096-35.442347-79.003307-79.003307-79.003307-43.559253 0-79.0016 35.442347-79.0016 79.003307v90.919253H217.15456V449.389227h14.2336z m-14.235307 321.580373h215.84384v26.743467H217.152853v-26.743467z m676.85888 108.663467H129.988267v-70.31808H894.01344v70.31808z" p-id="4400" fill="#f4ea2a"></path></svg>